# xmcd
#
# Track frame offsets:
# 150
# 22819
# 41268
# 62454
# 80799
# 98911
# 117243
# 138416
# 157304
# 173369
# 197288
# 222101
# 240296
# 261222
# 282504
# 298888
#
# Disc length: 4202 seconds
#
#
# Revision: 0
# Processed by: cddbd v1.5.2PL0 Copyright (c) Steve Scherf et al.
# Submitted via: FreeRIP 2.944 
#
DISCID=db106810
DTITLE=ALEJANDRO SANZ - BASÍCO - 3
DYEAR=1900
DGENRE=Latin
TTITLE0=POR BANDERA
TTITLE1=QUE NOTE DARÍA YO
TTITLE2=ELLOS SON ASÍ
TTITLE3=SI TÚ MI MIRAS
TTITLE4=CÓMO TE HECHO DE MENOS
TTITLE5=QUIERO MORIR EN TU VENENO
TTITLE6=LOS DOS COGIDOS DE LA MANO
TTITLE7=CANCIÓN SIN EMOCIÓN
TTITLE8=TU LETRA PODRÉ ACARICIAR
TTITLE9=A GOLPES CONTRA EL CALENDARIO
TTITLE10=ERES MÍA
TTITLE11=ESE QUE ME DIO VIDA
TTITLE12=SE LE APAGÓ LA LUZ
TTITLE13=SE ME OLVIDÓ TODO AL VERTE
TTITLE14=VIVIENDO DEPRISA
TTITLE15=¿LO VES? (PIANO Y VOZ)
EXTD=
EXTT0=
EXTT1=
EXTT2=
EXTT3=
EXTT4=
EXTT5=
EXTT6=
EXTT7=
EXTT8=
EXTT9=
EXTT10=
EXTT11=
EXTT12=
EXTT13=
EXTT14=
EXTT15=
PLAYORDER=
